<svg width="27" height="28" viewBox="0 0 27 28" fill="none" xmlns="http://www.w3.org/2000/svg">
<path d="M11.149 6.60843L13.6367 0.5H13.9479L22.9275 22.5017C23.4232 23.7154 24.1051 24.8442 24.9488 25.8473C25.7128 26.7416 26.3868 27.1891 26.9702 27.1891V27.5H16.0083V27.1885C16.7338 27.1885 17.2652 26.6567 17.6019 25.5936C17.745 25.1472 17.8175 24.6811 17.8158 24.2122C17.8005 23.4334 17.6494 22.6631 17.3687 21.9364L16.2415 19.1747L16.1051 18.8632H16.1243L11.2837 7.01623L11.1484 6.60786L11.149 6.60843Z" fill="white"/>
<path d="M24.8186 0.699366H24.4016V1.91822H24.1475V0.699366H23.7344V0.5H24.8209L24.8186 0.699366Z" fill="white"/>
<path d="M26.8277 0.5V1.91822H26.5736L26.581 0.804714H26.5776L26.1565 1.91822H25.9557L25.5584 0.804147H25.555L25.5624 1.91765H25.3213V0.5H25.6687L26.0626 1.61747H26.0677L26.4808 0.5H26.8271H26.8277Z" fill="white"/>
<path d="M13.4166 20.3773C9.82148 20.3773 6.90714 23.5536 6.90714 27.4707C6.90714 23.5536 3.99224 20.3773 0.395996 20.3773C3.99224 20.3773 6.90714 17.201 6.90714 13.2822C6.90714 17.201 9.82205 20.3773 13.4166 20.3773Z" fill="white"/>
</svg>
