<svg width="77" height="86" viewBox="0 0 77 86" fill="none" xmlns="http://www.w3.org/2000/svg">
<path d="M5.26835 64.7983L7.30915 70.2243H3.16866L5.27091 64.7983H5.26835ZM4.8945 63.3926L0.416016 74.398H1.49659L2.81017 71.0897H7.64714L8.88391 74.398H10.0131L5.74718 63.3951H4.8945V63.3926Z" fill="white"/>
<path d="M15.4698 71.0902C15.4774 71.4999 15.5671 71.9045 15.7335 72.2809C15.8795 72.5984 16.0971 72.8801 16.3685 73.1003C16.6502 73.3231 16.978 73.4844 17.3262 73.5715C17.7308 73.6739 18.1456 73.7225 18.563 73.72C18.9675 73.7225 19.3721 73.6687 19.7613 73.5586C20.1045 73.4613 20.4271 73.3077 20.719 73.1029C20.9802 72.9185 21.1978 72.6804 21.354 72.3987C21.5051 72.117 21.5819 71.7995 21.5768 71.4794C21.5922 71.1158 21.4923 70.7574 21.2926 70.4526C21.0928 70.1838 20.8393 69.9636 20.5474 69.7997C20.2171 69.6128 19.8638 69.4694 19.4976 69.3746C19.1007 69.2671 18.6987 69.1595 18.2915 69.0494C17.8844 68.9419 17.4824 68.8164 17.0855 68.6756C16.7091 68.5476 16.3557 68.3632 16.0357 68.1276C15.7258 67.8946 15.4698 67.5976 15.2905 67.2545C15.0857 66.8396 14.9884 66.3787 15.0037 65.9153C14.9884 65.4646 15.1036 65.0191 15.3366 64.6324C15.5517 64.2867 15.8385 63.9923 16.1765 63.7669C16.5222 63.539 16.9037 63.37 17.3057 63.2727C17.7 63.1729 18.1046 63.1191 18.5118 63.1191C19.3516 63.096 20.1838 63.283 20.9366 63.6594C21.6664 64.0793 22.2016 64.7681 22.4346 65.5773L21.4616 66.1022C21.2951 65.462 20.8906 64.9064 20.3323 64.5479C19.7793 64.2253 19.1468 64.0639 18.5066 64.0768C18.2173 64.0768 17.9279 64.1177 17.6488 64.192C17.3672 64.2637 17.0983 64.3815 16.8525 64.5402C16.622 64.6887 16.4249 64.8859 16.2738 65.1189C16.1227 65.357 16.0433 65.6336 16.0485 65.9153C16.0305 66.2712 16.133 66.6194 16.3352 66.9113C16.535 67.1725 16.791 67.385 17.0804 67.5361C17.4133 67.7128 17.7666 67.846 18.1328 67.9381C18.5297 68.0406 18.9317 68.1455 19.3388 68.248C19.746 68.3504 20.148 68.4707 20.5449 68.6039C20.9213 68.7268 21.2746 68.906 21.5947 69.1365C21.9045 69.3618 22.1606 69.6563 22.3399 69.9943C22.5421 70.4014 22.642 70.8521 22.6241 71.3079C22.683 72.263 22.2886 73.1925 21.5589 73.8121C20.6883 74.4369 19.6307 74.7442 18.5604 74.6776C18.0483 74.6828 17.5387 74.629 17.0394 74.5163C16.6041 74.419 16.1893 74.2398 15.818 73.9914C15.457 73.743 15.1548 73.4229 14.9295 73.0491C14.6734 72.6138 14.5019 72.1324 14.4199 71.6356L15.4723 71.0953L15.4698 71.0902Z" fill="white"/>
<path d="M28.7778 71.0902C28.7854 71.4999 28.8751 71.9045 29.0415 72.2809C29.1874 72.5984 29.4051 72.8801 29.6765 73.1003C29.9582 73.3231 30.2859 73.4844 30.6342 73.5715C31.0388 73.6739 31.4536 73.7225 31.871 73.72C32.2755 73.7225 32.6801 73.6687 33.0693 73.5586C33.4124 73.4613 33.7351 73.3077 34.027 73.1029C34.2882 72.9185 34.5058 72.6804 34.662 72.3987C34.8131 72.117 34.8899 71.7995 34.8848 71.4794C34.9001 71.1158 34.8003 70.7574 34.6006 70.4526C34.4008 70.1838 34.1473 69.9636 33.8554 69.7997C33.5251 69.6128 33.1717 69.4694 32.8056 69.3746C32.4087 69.2671 32.0067 69.1595 31.5995 69.0494C31.1924 68.9419 30.7904 68.8164 30.3935 68.6756C30.0171 68.5476 29.6612 68.3632 29.3411 68.1276C29.0313 67.8946 28.7752 67.5976 28.596 67.2545C28.3911 66.8396 28.2938 66.3787 28.3092 65.9153C28.2938 65.4646 28.409 65.0191 28.642 64.6324C28.8571 64.2867 29.1439 63.9923 29.4819 63.7669C29.8276 63.539 30.2091 63.37 30.6111 63.2727C31.0055 63.1729 31.41 63.1191 31.8172 63.1191C32.6571 63.096 33.4893 63.283 34.2421 63.6594C34.9718 64.0793 35.507 64.7681 35.74 65.5773L34.767 66.1022C34.6006 65.462 34.196 64.9064 33.6378 64.5479C33.0847 64.2253 32.4548 64.0639 31.8146 64.0768C31.5253 64.0768 31.2359 64.1177 30.9568 64.192C30.6752 64.2637 30.4063 64.3815 30.1605 64.5402C29.93 64.6887 29.7329 64.8859 29.5818 65.1189C29.4307 65.357 29.3513 65.6336 29.3564 65.9153C29.3385 66.2712 29.4409 66.6194 29.6432 66.9113C29.843 67.1725 30.099 67.385 30.3884 67.5361C30.7212 67.7128 31.0746 67.8485 31.4408 67.9381C31.8377 68.0406 32.2397 68.1455 32.6468 68.248C33.054 68.3504 33.456 68.4707 33.8529 68.6039C34.2293 68.7268 34.5826 68.906 34.9053 69.1365C35.2151 69.3618 35.4712 69.6563 35.6504 69.9943C35.8527 70.4014 35.9526 70.8521 35.9346 71.3079C35.9935 72.263 35.5992 73.1925 34.8694 73.8121C33.9988 74.4369 32.9413 74.7442 31.871 74.6776C31.3588 74.6828 30.8493 74.629 30.35 74.5163C29.9147 74.419 29.4998 74.2398 29.1286 73.9914C28.7675 73.743 28.4654 73.4229 28.24 73.0491C27.984 72.6138 27.8124 72.1324 27.7305 71.6356L28.7803 71.0953L28.7778 71.0902Z" fill="white"/>
<path d="M49.6122 70.826C49.6225 71.3919 49.5252 71.9578 49.3254 72.4878C49.1488 72.9462 48.8671 73.3584 48.506 73.6939C48.1348 74.0267 47.6969 74.2777 47.2232 74.4288C46.1401 74.7591 44.9827 74.7591 43.8995 74.4288C43.4233 74.2777 42.988 74.0267 42.6167 73.6939C42.2556 73.361 41.974 72.9487 41.7973 72.4878C41.5976 71.9578 41.5003 71.3944 41.5105 70.826V63.3926H42.5603V70.7953C42.5475 71.2613 42.6295 71.7222 42.801 72.1549C43.0776 72.8489 43.6691 73.3712 44.3937 73.5607C45.1568 73.7656 45.9608 73.7656 46.7239 73.5607C47.4485 73.3712 48.0375 72.8489 48.3166 72.1549C48.4881 71.7222 48.5701 71.2587 48.5573 70.7953V63.3926H49.6097L49.6148 70.826H49.6122Z" fill="white"/>
<path d="M55.5768 63.3928H60.4445C60.9438 63.38 61.4405 63.4696 61.904 63.6565C62.283 63.8127 62.621 64.0458 62.9001 64.3453C63.1587 64.6296 63.3533 64.9624 63.4711 65.3261C63.594 65.6897 63.658 66.0712 63.658 66.4553C63.7118 67.2695 63.3943 68.0659 62.7925 68.619C62.1165 69.1516 61.2869 69.4486 60.4266 69.4691L63.9499 74.3982H62.621L59.1283 69.5152H56.6241V74.3982H55.5742V63.3928H55.5768ZM56.6266 68.555H59.8888C60.3497 68.5703 60.8106 68.5038 61.2485 68.3629C61.5558 68.2605 61.84 68.0915 62.0756 67.8687C62.2676 67.6818 62.411 67.4514 62.493 67.1953C62.5698 66.9546 62.6082 66.7037 62.6082 66.4502C62.6363 65.8843 62.4289 65.3286 62.0372 64.9189C61.4764 64.4811 60.7671 64.2762 60.0604 64.3479H56.6292V68.5575L56.6266 68.555Z" fill="white"/>
<path d="M68.8848 63.3932H76.0877V64.3508H69.9346V68.2455H75.4834V69.2032H69.9346V73.4384H76.4129V74.3961H68.8873V63.3906L68.8848 63.3932Z" fill="white"/>
<path d="M26.6926 79.4886H29.2455C29.5451 79.4835 29.8447 79.5322 30.1264 79.6295C30.3696 79.7165 30.5975 79.8446 30.7947 80.0136C30.9842 80.1749 31.1455 80.3669 31.2735 80.5795C31.4041 80.7946 31.5091 81.025 31.5885 81.2631C31.6679 81.5038 31.7242 81.7522 31.7575 82.0032C31.7908 82.2464 31.8061 82.4922 31.8087 82.738C31.8061 83.1042 31.76 83.4678 31.6755 83.8237C31.591 84.2001 31.44 84.5561 31.2274 84.8787C31.0124 85.2039 30.7256 85.4753 30.3876 85.6725C29.9856 85.8953 29.5298 86.0054 29.0689 85.9874H26.6875V79.4886H26.6926ZM27.3148 85.4216H29.0407C29.3941 85.4344 29.7449 85.3524 30.0598 85.186C30.3287 85.0375 30.5566 84.8249 30.7256 84.5689C30.8971 84.3077 31.02 84.0158 31.0866 83.7111C31.1583 83.3936 31.1967 83.0658 31.1967 82.7406C31.1967 82.4282 31.1609 82.1184 31.0968 81.8137C31.0354 81.5064 30.9202 81.2145 30.7589 80.9456C30.6027 80.687 30.3876 80.4694 30.1341 80.308C29.8447 80.1314 29.5093 80.0443 29.1713 80.0571H27.32V85.4241L27.3148 85.4216Z" fill="white"/>
<path d="M35.0911 79.4883H39.3442V80.0542H35.7082V82.3536H38.9857V82.9195H35.7082V85.4212H39.5311V85.9871H35.0859L35.0911 79.4883Z" fill="white"/>
<path d="M42.7858 79.4883H47.021V80.0542H43.4054V82.2256H46.6369V82.7915H43.4054V85.9871H42.7832V79.4883H42.7858Z" fill="white"/>
<path d="M50.8761 79.4883H50.2539V85.9871H50.8761V79.4883Z" fill="white"/>
<path d="M33.5801 11.6328L38.3249 0H38.9189L56.0365 41.9042C56.9814 44.2164 58.2822 46.3647 59.8902 48.2775C61.3472 49.9803 62.6326 50.833 63.7439 50.833V51.427H42.8469V50.833C44.2296 50.833 45.2436 49.819 45.8863 47.7936C46.1603 46.9434 46.296 46.0549 46.2934 45.1613C46.2653 43.6787 45.9759 42.2115 45.4408 40.8262L43.2975 35.5667L43.0389 34.9726H43.0773L33.8515 12.4087L33.5878 11.6302L33.5801 11.6328Z" fill="white"/>
<path d="M72.5832 0.378969H71.7869V2.70399H71.3029V0.378969H70.5117V0H72.5832V0.378969Z" fill="white"/>
<path d="M76.4121 0V2.70399H75.9281L75.9409 0.583816H75.9358L75.1318 2.70399H74.7502L73.9923 0.578695H73.9846L73.9974 2.69887H73.5391V0H74.2023L74.9474 2.12786H74.9576L75.7463 0H76.4095H76.4121Z" fill="white"/>
<path d="M37.9058 37.8531C31.0537 37.8531 25.4972 43.9012 25.4972 51.3628C25.4972 43.9038 19.9407 37.8531 13.0859 37.8531C19.9407 37.8531 25.4972 31.805 25.4972 24.3408C25.4972 31.805 31.0537 37.8531 37.9058 37.8531Z" fill="white"/>
</svg>
