<svg width="78" height="86" viewBox="0 0 78 86" fill="none" xmlns="http://www.w3.org/2000/svg">
<g clip-path="url(#clip0_1252_4374)">
<mask id="mask0_1252_4374" style="mask-type:luminance" maskUnits="userSpaceOnUse" x="0" y="0" width="78" height="86">
<path d="M77.5059 0H0.505859V85.9949H77.5059V0Z" fill="white"/>
</mask>
<g mask="url(#mask0_1252_4374)">
<path fill-rule="evenodd" clip-rule="evenodd" d="M64.6437 10.0312L64.9928 12.1311C65.2629 14.0595 65.3801 16.0057 65.3419 17.952C65.3521 22.2569 64.8501 26.5464 63.8512 30.7309C62.5263 36.4084 60.1973 41.7991 56.974 46.6469C52.6347 53.0363 46.8531 58.3041 40.1007 62.0199L39.1401 62.5654L38.1744 62.0199C26.1501 55.5024 17.4943 44.1039 14.4188 30.7258C13.4199 26.5387 12.918 22.2492 12.9282 17.9418C12.9103 15.9955 13.0275 14.0518 13.2772 12.1209L13.583 10.0209C13.6289 9.85704 13.6289 9.6829 13.583 9.519C13.555 9.34998 13.4785 9.19121 13.3639 9.06316C13.2696 8.92487 13.1524 8.80707 13.0148 8.71232C12.8797 8.63293 12.732 8.57147 12.5791 8.53306C12.4211 8.4844 12.2529 8.4844 12.0949 8.53306C11.9293 8.55866 11.7764 8.63805 11.6567 8.75585C11.5191 8.85061 11.4019 8.96841 11.3076 9.1067C11.2235 9.26291 11.1623 9.43193 11.1292 9.60863L10.7801 11.7086C10.5177 13.7752 10.3852 15.8547 10.3877 17.9392C10.3826 22.4592 10.9126 26.9638 11.965 31.3558C12.6606 34.3494 13.6289 37.274 14.857 40.0884C19.3136 50.4344 27.1183 58.9597 37.0048 64.2863L38.5413 65.1468C38.7324 65.2415 38.9414 65.2876 39.1554 65.2851C39.3669 65.2851 39.5758 65.2364 39.7669 65.1468L41.3034 64.2863C48.4151 60.3963 54.5024 54.8597 59.066 48.1399C62.4753 43.0309 64.9393 37.3457 66.3407 31.3558C67.3829 26.9613 67.9027 22.4566 67.8899 17.9392C67.8899 15.8419 67.7574 13.7445 67.4975 11.6625L67.1484 9.56254C67.1102 9.3884 67.0516 9.22194 66.9752 9.0606C66.8809 8.92487 66.7637 8.80451 66.6261 8.70976C66.4885 8.61757 66.3407 8.54074 66.1878 8.48184C66.0298 8.43574 65.8642 8.43574 65.7062 8.48184C65.5381 8.52537 65.375 8.58683 65.2221 8.66878C65.0769 8.75329 64.9571 8.87366 64.873 9.01963C64.7838 9.16304 64.7125 9.31413 64.6564 9.47547L64.6462 10.0235L64.6437 10.0312Z" fill="white"/>
<path fill-rule="evenodd" clip-rule="evenodd" d="M20.4631 8.62031L39.1353 2.70464L58.1999 8.75604C58.3579 8.79445 58.5185 8.80982 58.6815 8.80213C58.8497 8.80213 59.0179 8.75348 59.1631 8.66641C59.3134 8.58702 59.4485 8.4769 59.5606 8.3463C59.6778 8.22081 59.7543 8.06204 59.7797 7.89046C59.8154 7.72656 59.8282 7.5601 59.8205 7.39364C59.8205 7.21694 59.7747 7.04536 59.6906 6.88915C59.6141 6.73549 59.5097 6.59976 59.3848 6.48196C59.265 6.36416 59.1122 6.28477 58.9465 6.25404L39.4844 0.0720414C39.2449 -0.0227117 38.9799 -0.0227117 38.7429 0.0720414L19.7165 6.12088C19.556 6.16697 19.4082 6.24636 19.2782 6.3488C19.1432 6.45379 19.0362 6.59464 18.9725 6.75598C18.8833 6.90963 18.8374 7.08377 18.84 7.26048C18.8298 7.42693 18.8451 7.59595 18.8858 7.75729C18.9317 7.92119 19.0056 8.07484 19.1024 8.21313C19.2069 8.35142 19.3419 8.46154 19.4999 8.5358C19.6452 8.62543 19.8108 8.67153 19.9815 8.66897C20.1446 8.67409 20.3077 8.65872 20.4656 8.62287" fill="white"/>
<path fill-rule="evenodd" clip-rule="evenodd" d="M11.259 10.4437L37.9984 64.6169C38.0799 64.8294 38.2354 65.0087 38.4341 65.1214C38.8418 65.3596 39.3438 65.3596 39.7515 65.1214C39.9553 65.001 40.1209 64.8269 40.2331 64.6169L56.5407 32.954L56.5865 32.9079L67.0132 10.3925C67.082 10.2337 67.1279 10.0647 67.1457 9.89056C67.1585 9.71898 67.1304 9.5474 67.0591 9.38862C67.0158 9.21448 66.924 9.05827 66.7941 8.93278C66.6947 8.79194 66.5597 8.68182 66.4017 8.61523C66.2564 8.5256 66.0883 8.47951 65.9176 8.48207C65.757 8.47438 65.594 8.48975 65.436 8.53072C65.2653 8.57426 65.1098 8.66645 64.9926 8.79962C64.8576 8.90974 64.7531 9.04802 64.6868 9.20936L54.2576 31.7196L39.0941 61.193L13.4962 9.21192C13.407 9.06595 13.3051 8.92766 13.1879 8.80218C13.0605 8.68438 12.9101 8.59475 12.7496 8.53328C12.6018 8.44878 12.426 8.43085 12.2655 8.48463C12.0973 8.48975 11.9317 8.53585 11.7839 8.62292C11.6412 8.71511 11.5087 8.8201 11.389 8.94047C11.2896 9.07876 11.2157 9.23241 11.1698 9.39631C11.1112 9.55764 11.0959 9.72922 11.124 9.89824C11.124 10.0877 11.1724 10.2747 11.2565 10.4437" fill="white"/>
<path fill-rule="evenodd" clip-rule="evenodd" d="M24.0576 34.5464H53.8215C53.9846 34.5361 54.1477 34.5054 54.3031 34.4542C54.456 34.4004 54.5936 34.3057 54.6955 34.1802C54.8127 34.0649 54.9045 33.9241 54.9605 33.7704C55.0777 33.4478 55.0777 33.0918 54.9605 32.7691C54.8994 32.618 54.8076 32.4797 54.6955 32.3594C54.5885 32.239 54.4534 32.1443 54.3031 32.0854C54.1502 32.029 53.9872 31.9957 53.8215 31.9932H24.0576C23.8919 32.0008 23.7289 32.0341 23.5734 32.0854C23.4206 32.1391 23.283 32.2339 23.181 32.3594C23.0638 32.4746 22.9721 32.6129 22.916 32.7691C22.7988 33.0918 22.7988 33.4478 22.916 33.7704C22.967 33.9292 23.0587 34.0701 23.181 34.1802C23.2906 34.3005 23.4231 34.3953 23.5734 34.4542C23.7289 34.5105 23.8919 34.5438 24.0576 34.5464Z" fill="white"/>
<path fill-rule="evenodd" clip-rule="evenodd" d="M9.90351 77.2934H2.06566C1.99941 77.2959 1.93316 77.3087 1.86946 77.3318C1.8083 77.3548 1.75225 77.3907 1.71148 77.4419C1.66561 77.4905 1.62994 77.5469 1.60446 77.6083C1.58407 77.6749 1.57388 77.7415 1.56878 77.8107V84.3409C1.57133 84.4101 1.58407 84.4767 1.60446 84.5432C1.62484 84.6073 1.66051 84.6636 1.71148 84.7097C1.75734 84.7558 1.81085 84.7942 1.86946 84.8198C1.93316 84.8429 1.99941 84.8557 2.06566 84.8557H9.90096V85.9594H2.06566C1.96373 85.9594 1.86436 85.9441 1.76499 85.921C1.66306 85.898 1.56114 85.8672 1.46431 85.8288C1.37004 85.7955 1.28085 85.7469 1.19931 85.688C1.11778 85.6265 1.04133 85.5599 0.967441 85.4857C0.822201 85.3397 0.707538 85.163 0.631096 84.9709C0.590327 84.871 0.55975 84.766 0.539366 84.6585C0.521529 84.556 0.508789 84.4511 0.508789 84.3461V77.8311C0.508789 77.7261 0.521529 77.6211 0.544462 77.5187C0.567395 77.4112 0.597971 77.3087 0.636192 77.2063C0.666769 77.1064 0.715182 77.0117 0.776336 76.9271C0.829845 76.8401 0.896095 76.7581 0.969989 76.6864C1.04133 76.6147 1.12032 76.5481 1.20186 76.4867C1.2834 76.4278 1.37258 76.3817 1.46686 76.3458C1.56369 76.3048 1.66561 76.2716 1.76753 76.2536C1.86691 76.2331 1.96883 76.2203 2.06821 76.2178H9.90606V77.2985H9.90351V77.2934Z" fill="white"/>
<path fill-rule="evenodd" clip-rule="evenodd" d="M24.6005 76.1895V77.2932H17.0633V80.5327H23.1226V81.6518H17.0633V84.8965H24.6005V86.0002H16.0059V76.1895H24.6005Z" fill="white"/>
<path d="M40.1342 77.844V80.7148C40.1342 80.8198 40.1189 80.9248 40.0986 81.0272C40.0756 81.1348 40.0451 81.2398 40.0068 81.3397C39.9737 81.4395 39.9278 81.5343 39.8667 81.6188C39.8081 81.7033 39.7418 81.7827 39.673 81.857C39.5991 81.9287 39.5227 81.9978 39.4412 82.0593C39.3571 82.1131 39.2679 82.1617 39.1762 82.2001C39.0793 82.2411 38.9774 82.2744 38.8755 82.2923C38.7761 82.3128 38.6742 82.3256 38.5748 82.3282H37.1428L40.1011 85.9723H38.692L35.749 82.3282H32.3015C32.1282 82.3282 31.9575 82.3102 31.7868 82.2744V85.9723H30.7217V76.2051H38.5748C38.6767 76.2051 38.7787 76.2179 38.8755 76.2435C38.9774 76.2665 39.0793 76.2973 39.1762 76.3357C39.2704 76.3741 39.3596 76.4253 39.4412 76.4842C39.6068 76.6046 39.7495 76.7531 39.8641 76.9247C39.9177 77.0143 39.9661 77.1065 40.0043 77.2038C40.0451 77.3037 40.0782 77.4087 40.096 77.5163C40.1164 77.6238 40.1291 77.7314 40.1342 77.8389M32.2811 81.2296H38.5723C38.6385 81.227 38.7048 81.2142 38.7685 81.1911C38.8347 81.1758 38.8908 81.1374 38.929 81.081C38.9774 81.0349 39.0131 80.9786 39.036 80.9146C39.059 80.8505 39.0717 80.7814 39.0717 80.7123V77.8415C39.0742 77.7058 39.0258 77.5726 38.9315 77.4727C38.8449 77.3652 38.715 77.3037 38.5774 77.3063H32.2836C32.2174 77.3063 32.1511 77.3216 32.0874 77.3447C32.0263 77.3677 31.9702 77.4061 31.9295 77.4548C31.8836 77.5035 31.8479 77.5598 31.8224 77.6213C31.8021 77.6878 31.7893 77.7544 31.7868 77.8236V80.6943C31.7817 80.8377 31.8403 80.9735 31.9473 81.0682C32.0237 81.1783 32.1511 81.2424 32.2836 81.2347" fill="white"/>
<path fill-rule="evenodd" clip-rule="evenodd" d="M45.7725 76.1891H55.185V77.2928H51.0189V85.9768H49.9564V77.2928H45.7725V76.1891ZM60.9131 76.1891H61.9782V85.9794H60.9131V76.1891ZM76.1276 76.1891H77.4933L73.554 81.083L77.5086 85.9768H76.125L72.6163 81.6361H69.5892V85.9768H68.5216V76.1865H69.6045V80.5272H72.6367L76.1327 76.1891H76.1276Z" fill="white"/>
</g>
</g>
<defs>
<clipPath id="clip0_1252_4374">
<rect width="77" height="86" fill="white" transform="translate(0.505859)"/>
</clipPath>
</defs>
</svg>
