<svg width="12" height="12" viewBox="0 0 12 12" fill="none" xmlns="http://www.w3.org/2000/svg">
<g clip-path="url(#clip0_1155_373)">
<path d="M11.5031 2.42578L11.4325 2.03792C11.4325 2.03792 11.409 1.95565 11.3855 1.92039C11.362 1.88513 11.3268 1.86163 11.3033 1.83812C11.268 1.81461 11.2327 1.80286 11.1975 1.77935C11.1857 1.77935 11.174 1.77935 11.1505 1.77935C11.1505 1.77935 11.127 1.77935 11.1152 1.77935H11.0917H11.0682H11.0447C11.0447 1.77935 11.0094 1.77935 10.9859 1.79111C10.9389 1.80286 10.8919 1.82637 10.8801 1.86163C10.8449 1.88513 10.8096 1.93214 10.7979 1.9674L8.9056 6.04576H3.66368L1.65389 1.95565C1.65389 1.95565 1.60687 1.89688 1.58337 1.86163C1.54811 1.83812 1.51285 1.81461 1.48934 1.80286C1.44233 1.77935 1.39532 1.7676 1.3483 1.77935C1.31304 1.77935 1.26603 1.79111 1.23077 1.81461C1.19551 1.83812 1.17201 1.86163 1.13675 1.89688C1.13675 1.89688 1.13675 1.90864 1.12499 1.92039C1.12499 1.92039 1.12499 1.92039 1.12499 1.93214V1.9674C1.12499 1.9674 1.10149 1.97916 1.10149 1.99091V2.01442L1.03097 2.42578C0.983956 2.80188 0.960449 3.18973 0.960449 3.56584C0.960449 4.38856 1.05447 5.21128 1.25428 6.0105C1.85369 8.58445 3.5344 10.7823 5.84977 12.0281L6.13185 12.1809C6.13185 12.1809 6.22587 12.2162 6.27289 12.2162C6.27289 12.2162 6.27289 12.2162 6.28464 12.2162C6.33165 12.2162 6.39042 12.2162 6.43743 12.1809L6.71951 12.0281C9.04664 10.7705 10.7273 8.58445 11.3268 6.0105C11.5148 5.21128 11.6088 4.38856 11.6088 3.55408C11.6088 3.16623 11.5853 2.77837 11.5383 2.40227L11.5031 2.42578ZM5.47367 11.0761C3.64017 9.86554 2.32382 7.98503 1.84194 5.86946C1.66564 5.11726 1.57161 4.34155 1.57161 3.57759C1.57161 3.47181 1.57161 3.35428 1.58337 3.23675L5.47367 11.0761ZM8.58826 6.66868L6.23763 11.2172L3.99277 6.66868H8.58826ZM10.9271 3.57759C10.9271 4.3533 10.8331 5.11726 10.6568 5.86946C10.4218 6.89199 9.99865 7.844 9.42274 8.71373C8.79982 9.63048 8.00061 10.4179 7.03684 11.0526L9.48151 6.33959L10.9154 3.26025C10.9154 3.36603 10.9271 3.46006 10.9154 3.56584L10.9271 3.57759Z" fill="url(#paint0_linear_1155_373)"/>
<path d="M2.53683 1.62194C2.53683 1.62194 2.59559 1.69246 2.63085 1.70422C2.66611 1.72772 2.71313 1.73948 2.76014 1.73948C2.7954 1.73948 2.83066 1.73948 2.87767 1.73948L6.26259 0.68169L9.71802 1.77474C9.71802 1.77474 9.77679 1.77474 9.81205 1.77474C9.81205 1.77474 9.8238 1.77474 9.83555 1.77474C9.87081 1.77474 9.92958 1.76298 9.96484 1.73948C10.0001 1.71597 10.0354 1.69246 10.0589 1.66896C10.0941 1.6337 10.1176 1.58669 10.1176 1.53967C10.1176 1.50441 10.1176 1.46915 10.1176 1.43389C10.1176 1.38688 10.1059 1.33987 10.0824 1.30461C10.0589 1.26935 10.0354 1.23409 10.0119 1.21058C9.97659 1.17532 9.92958 1.15182 9.89432 1.15182L6.34486 0.023512C6.28609 5.67222e-06 6.21557 5.67222e-06 6.15681 0.023512L2.68962 1.11656C2.68962 1.11656 2.60735 1.15182 2.58384 1.17532C2.54858 1.19883 2.51332 1.24584 2.50157 1.26935C2.47806 1.31636 2.46631 1.36337 2.46631 1.39863C2.46631 1.43389 2.46631 1.46915 2.46631 1.51617C2.46631 1.55143 2.48982 1.59844 2.51332 1.62194H2.53683Z" fill="url(#paint1_linear_1155_373)"/>
</g>
<defs>
<linearGradient id="paint0_linear_1155_373" x1="6.28464" y1="1.77474" x2="10.7303" y2="18.5428" gradientUnits="userSpaceOnUse">
<stop stop-color="white"/>
<stop offset="1" stop-color="#C5C5C5" stop-opacity="0"/>
</linearGradient>
<linearGradient id="paint1_linear_1155_373" x1="5.2026" y1="-0.427545" x2="7.20431" y2="5.5776" gradientUnits="userSpaceOnUse">
<stop stop-color="white"/>
<stop offset="1" stop-color="#C5C5C5" stop-opacity="0"/>
</linearGradient>
<clipPath id="clip0_1155_373">
<rect width="10.6484" height="12" fill="white" transform="translate(0.925781)"/>
</clipPath>
</defs>
</svg>
