<svg width="27" height="28" viewBox="0 0 27 28" fill="none" xmlns="http://www.w3.org/2000/svg">
<g clip-path="url(#clip0_635_2982)">
<path d="M13.4385 0.500137C5.98356 0.533393 -0.0336059 6.60458 -0.000351102 14.0608C0.0329037 21.517 6.10485 27.5334 13.5598 27.5001C21.0157 27.4669 27.0319 21.3957 26.9987 13.9405C26.9654 6.48329 20.8945 0.466881 13.4385 0.500137ZM13.5549 26.4829C6.6604 26.5142 1.0462 20.9506 1.01588 14.0549C0.984579 7.16015 6.54792 1.54672 13.4424 1.51542C20.336 1.4851 25.9502 7.04864 25.9815 13.9424C26.0128 20.8372 20.4484 26.4516 13.5549 26.4819V26.4829Z" fill="white"/>
<path d="M20.8957 13.3329C20.8957 13.6214 20.6629 13.8571 20.3753 13.8581C20.0868 13.8601 19.8511 13.6263 19.8501 13.3378C19.8482 13.0492 20.0819 12.8145 20.3705 12.8135C20.659 12.8115 20.8937 13.0443 20.8957 13.3338V13.3329Z" fill="white"/>
<path d="M13.4272 10.9461C13.4272 11.8841 12.6672 12.6431 11.7292 12.6431C10.7912 12.6431 10.0312 11.8831 10.0312 10.9461C10.0312 10.009 10.7912 9.24805 11.7292 9.24805C12.6672 9.24805 13.4272 10.008 13.4272 10.9461Z" fill="white"/>
<path d="M19.8295 9.53293C18.9238 9.27079 17.9849 8.89813 17.0332 8.52351C16.9784 8.28485 16.7671 7.9875 16.3397 7.62462C15.7186 7.08567 14.5518 7.10035 13.5434 7.33803C12.4303 7.07589 11.331 6.98297 10.2746 7.23533C5.66394 8.5059 4.91277 10.7526 4.73085 13.4591C4.48535 16.4042 4.34451 18.5952 3.23047 21.1002C5.48104 24.7026 10.8439 27.4814 15.7118 26.2862C15.1895 22.6329 18.382 19.0549 20.1797 17.2239C20.5846 16.8121 21.2076 16.2458 21.7916 15.6432C24.139 13.4571 24.6163 10.8387 19.8276 9.53195L19.8295 9.53293ZM11.729 13.3378C10.3959 13.3378 9.31513 12.258 9.31513 10.9248C9.31513 9.59161 10.3959 8.51177 11.729 8.51177C13.0622 8.51177 14.142 9.59259 14.142 10.9248C14.142 12.257 13.0612 13.3378 11.729 13.3378ZM20.7088 15.8125C19.9655 16.1626 19.1908 16.4492 18.3908 16.6566C17.5936 16.863 16.7603 17.0185 15.9172 16.9422C15.0888 16.8688 14.2134 16.5783 13.6549 15.9474L13.6813 15.9171C14.3708 16.3612 15.1562 16.5177 15.9426 16.5402C16.729 16.5607 17.5301 16.502 18.3194 16.3426C19.1067 16.1802 19.8814 15.9367 20.6296 15.6286C21.3759 15.3205 22.1143 14.9634 22.7501 14.4568L22.7755 14.4871C22.1681 15.0397 21.4453 15.4505 20.7098 15.8125H20.7088Z" fill="white"/>
</g>
<defs>
<clipPath id="clip0_635_2982">
<rect width="27" height="27" fill="white" transform="translate(0 0.5)"/>
</clipPath>
</defs>
</svg>
