<svg width="28" height="28" viewBox="0 0 28 28" fill="none" xmlns="http://www.w3.org/2000/svg">
<path fill-rule="evenodd" clip-rule="evenodd" d="M24.347 16.6345C23.8512 16.9318 23.2677 16.969 22.8239 16.7311C22.2606 16.429 21.9504 15.7222 21.9504 14.7362V11.7908C21.9504 10.3683 21.3585 9.35628 20.3687 9.08282C18.692 8.61874 17.43 10.5696 16.9555 11.3007L13.9972 15.8576V10.2882C13.9636 9.00636 13.526 8.23962 12.6938 8.00864C12.1439 7.85572 11.32 7.91731 10.5202 9.08017L3.89221 19.1906C3.00467 17.5902 2.54245 15.8083 2.54469 13.9997C2.54469 7.90882 7.68213 2.95527 13.9972 2.95527C20.3122 2.95527 25.4491 7.91041 25.4491 13.9997C25.4491 14.0104 25.4519 14.0194 25.4525 14.0289C25.453 14.0385 25.4525 14.0491 25.4525 14.0597C25.5123 15.2391 25.1104 16.1773 24.3486 16.6345H24.347ZM27.9938 14.0008V13.9403C27.9575 6.52189 21.6933 0.5 13.9966 0.5C6.29996 0.5 0 6.55587 0 14.0003C0 21.4447 6.27928 27.5 13.9972 27.5C17.5373 27.5005 20.9427 26.2124 23.5131 23.8999C24.0295 23.4353 24.0597 22.6638 23.5807 22.1641C23.1135 21.6751 22.317 21.6379 21.8017 22.0818L21.7827 22.0983C19.6801 23.9907 16.8934 25.0447 13.9972 25.0442C10.6158 25.0442 7.5737 23.6222 5.47558 21.3677L11.4525 12.2512V16.4545C11.4525 18.4722 12.2769 19.1264 12.9677 19.317C13.6585 19.5076 14.7165 19.3775 15.8265 17.6656L19.1145 12.6022C19.2201 12.4386 19.3168 12.2979 19.4057 12.1774V14.7378C19.4057 16.6255 20.2016 18.1361 21.5888 18.8795C22.839 19.5496 24.4112 19.489 25.6922 18.7202C27.2443 17.7867 28.081 16.07 27.9938 14.0008Z" fill="white"/>
</svg>
