<svg width="23" height="28" viewBox="0 0 23 28" fill="none" xmlns="http://www.w3.org/2000/svg">
<path fill-rule="evenodd" clip-rule="evenodd" d="M8.36698 2.02679C6.82568 2.86461 5.56473 3.57366 5.56504 3.60252C5.56577 3.67691 9.26407 5.63161 9.39534 5.62685C9.45501 5.6248 9.88817 5.41667 10.3579 5.16453L11.212 4.7061L12.1447 5.20648L13.0775 5.70697L14.605 4.99067C16.9066 3.91131 17.1456 3.79303 17.1082 3.75335C17.0585 3.70059 16.233 3.23784 13.9932 2.00722C12.9108 1.41245 11.8601 0.829359 11.6584 0.711292C11.4566 0.593117 11.2641 0.498188 11.2304 0.500026C11.1968 0.501864 9.90817 1.18886 8.36687 2.02668L8.36698 2.02679ZM1.60701 5.67983L0.0026198 6.54479V10.3406C0.0026198 12.4282 0.0236511 14.1363 0.0495518 14.1363C0.0754524 14.1363 0.864697 13.7792 1.80365 13.3427L3.51091 12.5491V8.54814L4.34523 9.02246C4.98808 9.38769 5.63145 9.75205 6.27503 10.1158L7.37053 10.7348L7.85798 10.5047C8.16371 10.3601 8.46882 10.2143 8.77331 10.0669C9.00859 9.95251 9.58617 9.68102 10.0568 9.46348C10.5275 9.24584 10.9632 9.02689 11.0249 8.97705C11.107 8.91077 10.1064 8.33374 7.32391 6.84255C5.22657 5.71854 3.44326 4.80244 3.361 4.80687C3.27874 4.8113 2.4895 5.20399 1.60701 5.67972V5.67983ZM17.3972 5.92267C16.3045 6.43743 15.4097 6.8792 15.4086 6.90439C15.4077 6.92959 16.0032 7.29914 16.7322 7.72556C17.461 8.1521 18.0574 8.52381 18.0574 8.55182C18.0574 8.57982 17.4124 8.90591 16.6242 9.27676C15.8358 9.6475 13.8432 10.5866 12.196 11.3637L6.6768 13.9672C5.28842 14.6222 4.03701 15.2125 3.8958 15.2792C1.05999 16.619 0.280586 16.9907 0.173564 17.0545C0.065921 17.1187 0.0415744 17.4919 0.0224079 19.3652L-0.000488281 21.5995L1.4343 22.3624L2.86899 23.1253L4.85847 22.1883C5.95272 21.673 6.84796 21.2244 6.84796 21.1913C6.84796 21.1583 6.64572 21.0209 6.39873 20.8857C6.15164 20.7504 5.6414 20.4512 5.26491 20.2203C4.88841 19.9895 4.51306 19.7778 4.43059 19.7497C4.34823 19.7217 4.28203 19.6727 4.28338 19.6407C4.28472 19.6088 5.16079 19.1746 6.23007 18.6756C8.30689 17.7065 9.89625 16.9596 13.3084 15.3494C14.8342 14.6294 16.3602 13.9102 17.8863 13.191C19.2275 12.5592 20.7871 11.8214 21.3518 11.5513L22.3786 11.0603L22.4014 8.8006L22.4243 6.541L20.9691 5.76157C20.1687 5.33287 19.4846 4.98321 19.4487 4.98451C19.4129 4.9857 18.4896 5.40791 17.397 5.92277L17.3972 5.92267ZM21.9889 14.0748C21.7744 14.1841 21.3509 14.3888 21.0476 14.5295C20.7444 14.6703 20.169 14.9413 19.7689 15.1318L19.0416 15.478L19.025 17.4618C19.0159 18.5528 18.9773 19.4407 18.9394 19.4349C18.8533 19.4215 17.4901 18.6919 16.1199 17.9257C15.1309 17.3727 15.0687 17.3507 14.8363 17.4708C14.702 17.5404 13.8989 17.9162 13.0518 18.3062C12.2046 18.6962 11.484 19.0407 11.45 19.0719C11.4162 19.103 13.1211 20.0673 15.2388 21.215L19.0891 23.3016L20.7339 22.4136C21.6385 21.9254 22.4076 21.4799 22.443 21.4239C22.5228 21.298 22.516 13.8587 22.4361 13.8687C22.4045 13.8727 22.2032 13.9654 21.9887 14.0747L21.9889 14.0748ZM12.8806 22.8067C12.5953 22.9347 12.3101 23.0629 12.025 23.1912C11.1639 23.58 11.3326 23.5929 10.3082 23.0607C9.62585 22.7063 9.33172 22.5969 9.20409 22.65C9.10836 22.6898 8.2842 23.0767 7.3726 23.5099C6.461 23.943 5.68357 24.2973 5.64492 24.2973C5.26242 24.2973 5.89833 24.6938 8.35185 25.9854L11.2293 27.5L12.44 26.8763C13.1059 26.5332 14.449 25.8461 15.4247 25.3496C16.4003 24.8529 17.1866 24.4336 17.1719 24.4179C17.157 24.4021 16.3395 23.964 15.3551 23.4443L13.5651 22.4996L12.8806 22.8069V22.8067Z" fill="white"/>
</svg>
