<svg width="118" height="27" viewBox="0 0 118 27" fill="none" xmlns="http://www.w3.org/2000/svg">
<g clip-path="url(#clip0_842_3102)">
<path d="M4.48106 11.5686L0.962749 7.46013C0.769379 7.23449 0.425384 7.20453 0.194358 7.39523C0.0651051 7.50206 -0.00715424 7.66181 0.000987655 7.82854L0.500696 18.6563L4.48106 11.5696V11.5686Z" fill="url(#paint0_linear_842_3102)"/>
<path d="M25.3203 18.7551L25.8251 7.82654C25.8393 7.53201 25.6063 7.28241 25.306 7.26843C25.1371 7.26044 24.9732 7.33133 24.8643 7.45813L21.3083 11.6105L25.3213 18.7541L25.3203 18.7551Z" fill="url(#paint1_linear_842_3102)"/>
<path d="M24.7565 20.6062L13.3914 0.277572C13.2469 0.0189842 12.9161 -0.0758648 12.6515 0.0659094C12.5609 0.114832 12.4856 0.188714 12.4357 0.277572L1.06966 20.6062C0.925137 20.8648 1.02182 21.1903 1.28542 21.332C1.36582 21.375 1.45538 21.3979 1.54697 21.3979L12.9141 21.4149L24.2812 21.3979C24.5824 21.3979 24.8257 21.1583 24.8257 20.8628C24.8257 20.7729 24.8023 20.6851 24.7585 20.6062H24.7565ZM12.912 18.1411C10.7493 18.1411 8.99579 16.4209 8.99579 14.2992C8.99579 12.1776 10.7493 10.4574 12.912 10.4574C15.0747 10.4574 16.8283 12.1776 16.8283 14.2992C16.8283 16.4209 15.0747 18.1411 12.912 18.1411Z" fill="url(#paint2_linear_842_3102)"/>
<path d="M24.7941 23.87C25.0526 23.6354 25.0689 23.239 24.8287 22.9854C24.7076 22.8576 24.5387 22.7847 24.3606 22.7847H1.46454C1.1124 22.7847 0.826416 23.0653 0.826416 23.4107C0.826416 23.5855 0.900711 23.7522 1.03098 23.87L4.29893 26.8343C4.54319 27.0569 4.92077 27.0569 5.16503 26.8343L8.38922 23.9099C8.63347 23.6873 9.01105 23.6873 9.25531 23.9099L12.4785 26.8343C12.7227 27.0569 13.1003 27.0569 13.3446 26.8343L16.5688 23.9099C16.813 23.6873 17.1906 23.6873 17.4349 23.9099L20.6591 26.8343C20.9033 27.0569 21.2809 27.0569 21.5251 26.8343L24.7931 23.87H24.7941Z" fill="url(#paint3_linear_842_3102)"/>
</g>
<path d="M34.0528 7.27258H36.8348V12.6909L41.9226 7.27258H45.3301L40.1675 12.5351L45.5448 19.677H42.2027L38.2911 14.3962L36.8254 15.8814V19.677H34.0435V7.27258H34.0528Z" fill="white"/>
<path d="M47.3465 7.27258H50.1285V19.677H47.3465V7.27258Z" fill="white"/>
<path d="M53.2839 7.27258H55.8419L61.7606 14.9096V7.27258H64.5052V19.677H62.1433L56.0286 11.7924V19.677H53.2839V7.27258Z" fill="white"/>
<path d="M66.9697 13.5069V13.4702C66.9417 9.95885 69.817 7.08007 73.3925 7.05257C73.4578 7.05257 73.5232 7.05257 73.5885 7.05257C75.409 6.96089 77.1827 7.56598 78.5457 8.75783L76.8 10.8298C75.9131 9.99552 74.7275 9.54628 73.4952 9.57379C71.4134 9.66547 69.789 11.3891 69.873 13.4336V13.4702C69.7517 15.5147 71.3387 17.275 73.4298 17.3942C73.5232 17.3942 73.6072 17.3942 73.7006 17.3942C74.6341 17.4217 75.549 17.165 76.3145 16.6515V14.8821H73.5232V12.5259H79.0125V17.9167C77.5188 19.1911 75.5957 19.8879 73.6166 19.8787C70.1344 20.0621 67.1657 17.4308 66.979 14.0111C66.979 13.8369 66.9697 13.6719 66.979 13.4977L66.9697 13.5069Z" fill="white"/>
<path d="M82.0372 7.27258H86.6209C89.4029 7.27258 91.3167 8.6753 91.3167 11.0682V11.1048C91.3167 13.7269 89.0481 15.0563 86.3875 15.0563H82.9801V19.6862H82.0465V7.27258H82.0372ZM86.4435 14.2037C88.7867 14.2037 90.3738 13.021 90.3738 11.1598V11.1232C90.3738 9.16121 88.8054 8.12521 86.5462 8.12521H82.9707V14.2037H86.4342H86.4435Z" fill="white"/>
<path d="M97.6274 7.18091H98.533L104.414 19.6678H103.387L101.782 16.1931H94.332L92.7263 19.6678H91.7554L97.6368 7.18091H97.6274ZM101.38 15.368L98.0569 8.1894L94.7148 15.368H101.371H101.38Z" fill="white"/>
<path d="M107.075 7.27258H111.276C115.243 7.27258 117.988 9.94966 117.988 13.4335V13.4702C117.988 16.9632 115.243 19.6678 111.276 19.6678H107.075V7.27258ZM108.018 8.12521V18.8244H111.285C114.805 18.8244 117.027 16.4682 117.027 13.5069V13.4702C117.055 10.5364 114.655 8.14355 111.668 8.11605C111.537 8.11605 111.416 8.11605 111.285 8.12521H108.027H108.018Z" fill="white"/>
<defs>
<linearGradient id="paint0_linear_842_3102" x1="-2.90635" y1="9.371" x2="2.31242" y2="10.1886" gradientUnits="userSpaceOnUse">
<stop stop-color="#FFE89B"/>
<stop offset="0.17" stop-color="#FEE091"/>
<stop offset="0.45" stop-color="#FDCD76"/>
<stop offset="0.82" stop-color="#FBAF4C"/>
<stop offset="1" stop-color="#FB9E34"/>
</linearGradient>
<linearGradient id="paint1_linear_842_3102" x1="28.3421" y1="10.8491" x2="23.2738" y2="11.3757" gradientUnits="userSpaceOnUse">
<stop stop-color="#FFE89B"/>
<stop offset="0.17" stop-color="#FEE091"/>
<stop offset="0.45" stop-color="#FDCD76"/>
<stop offset="0.82" stop-color="#FBAF4C"/>
<stop offset="1" stop-color="#FB9E34"/>
</linearGradient>
<linearGradient id="paint2_linear_842_3102" x1="0.933187" y1="10.8129" x2="24.7554" y2="10.8129" gradientUnits="userSpaceOnUse">
<stop stop-color="#FFE89B"/>
<stop offset="0.17" stop-color="#FEE091"/>
<stop offset="0.45" stop-color="#FDCD76"/>
<stop offset="0.82" stop-color="#FBAF4C"/>
<stop offset="1" stop-color="#FB9E34"/>
</linearGradient>
<linearGradient id="paint3_linear_842_3102" x1="12.9518" y1="22.3208" x2="12.9518" y2="24.8506" gradientUnits="userSpaceOnUse">
<stop stop-color="#371378"/>
<stop offset="1" stop-color="#A65BF6"/>
</linearGradient>
<clipPath id="clip0_842_3102">
<rect width="25.8261" height="27" fill="white"/>
</clipPath>
</defs>
</svg>
