<svg width="60" height="80" viewBox="0 0 60 80" fill="none" xmlns="http://www.w3.org/2000/svg">
<g clip-path="url(#clip0_876_1568)">
<path d="M10.303 26.715L2.21363 17.2277C1.76904 16.7067 0.978119 16.6375 0.446942 17.0779C0.149764 17.3246 -0.0163755 17.6934 0.00234436 18.0785L1.15128 43.082L10.303 26.7173V26.715Z" fill="url(#paint0_linear_876_1568)"/>
<path d="M58.2166 43.3095L59.3772 18.0732C59.41 17.393 58.8741 16.8166 58.1838 16.7844C57.7954 16.7659 57.4186 16.9296 57.1683 17.2224L48.9923 26.8111L58.2189 43.3072L58.2166 43.3095Z" fill="url(#paint1_linear_876_1568)"/>
<path d="M56.9202 47.5839L30.7895 0.641004C30.4573 0.043871 29.6968 -0.175154 29.0884 0.152231C28.8801 0.265202 28.707 0.435811 28.5923 0.641004L2.45931 47.5839C2.12703 48.1811 2.34933 48.9327 2.95539 49.26C3.14025 49.3592 3.34617 49.4122 3.55677 49.4122L29.6921 49.4514L55.8274 49.4122C56.5201 49.4122 57.0793 48.8589 57.0793 48.1764C57.0793 47.9689 57.0255 47.7661 56.9249 47.5839H56.9202ZM29.6874 41.8916C24.7149 41.8916 20.6831 37.9191 20.6831 33.0199C20.6831 28.1206 24.7149 24.1482 29.6874 24.1482C34.6599 24.1482 38.6917 28.1206 38.6917 33.0199C38.6917 37.9191 34.6599 41.8916 29.6874 41.8916Z" fill="url(#paint2_linear_876_1568)"/>
<path d="M57.0067 55.1206C57.6011 54.5788 57.6385 53.6635 57.0863 53.0779C56.8078 52.7828 56.4194 52.6145 56.0099 52.6145H3.3672C2.55756 52.6145 1.90002 53.2624 1.90002 54.0601C1.90002 54.4635 2.07084 54.8486 2.37036 55.1206L9.88406 61.9657C10.4457 62.4799 11.3138 62.4799 11.8754 61.9657L19.2885 55.2128C19.8501 54.6987 20.7182 54.6987 21.2798 55.2128L28.6905 61.9657C29.2521 62.4799 30.1203 62.4799 30.6819 61.9657L38.095 55.2128C38.6566 54.6987 39.5247 54.6987 40.0863 55.2128L47.4994 61.9657C48.061 62.4799 48.9291 62.4799 49.4907 61.9657L57.0044 55.1206H57.0067Z" fill="url(#paint3_linear_876_1568)"/>
</g>
<path d="M1.49114 71.5222H3.36062V75.1633L6.77963 71.5222H9.06943L5.60023 75.0586L9.21372 79.8579H6.96783L4.33927 76.3093L3.35434 77.3073V79.8579H1.48486V71.5222H1.49114Z" fill="white"/>
<path d="M10.4242 71.5222H12.2937V79.8579H10.4242V71.5222Z" fill="white"/>
<path d="M14.4142 71.5222H16.1331L20.1104 76.6543V71.5222H21.9548V79.8579H20.3677L16.2586 74.5596V79.8579H14.4142V71.5222Z" fill="white"/>
<path d="M23.6128 75.712V75.6874C23.594 73.3278 25.5262 71.3932 27.9289 71.3748C27.9728 71.3748 28.0168 71.3748 28.0607 71.3748C29.284 71.3131 30.4759 71.7198 31.3918 72.5207L30.2187 73.9131C29.6227 73.3524 28.826 73.0505 27.9979 73.069C26.599 73.1306 25.5074 74.2889 25.5638 75.6628V75.6874C25.4823 77.0613 26.5488 78.2442 27.954 78.3243C28.0168 78.3243 28.0732 78.3243 28.1359 78.3243C28.7633 78.3428 29.3781 78.1703 29.8925 77.8252V76.6362H28.0168V75.0528H31.7055V78.6754C30.7018 79.5318 29.4094 80 28.0795 79.9939C25.7395 80.1171 23.7446 78.3489 23.6191 76.0509C23.6191 75.9338 23.6128 75.8229 23.6191 75.7059L23.6128 75.712Z" fill="white"/>
<path d="M33.7352 71.5222H36.8154C38.6849 71.5222 39.9709 72.4648 39.9709 74.0728V74.0975C39.9709 75.8595 38.4465 76.7528 36.6586 76.7528H34.3688V79.8641H33.7414V71.5222H33.7352ZM36.6962 76.1799C38.2708 76.1799 39.3373 75.3851 39.3373 74.1344V74.1098C39.3373 72.7914 38.2834 72.0952 36.7652 72.0952H34.3625V76.1799H36.6899H36.6962Z" fill="white"/>
<path d="M44.2123 71.4607H44.8209L48.7731 79.8519H48.083L47.004 77.5169H41.9978L40.9188 79.8519H40.2664L44.2186 71.4607H44.2123ZM46.7342 76.9624L44.5009 72.1384L42.255 76.9624H46.728H46.7342Z" fill="white"/>
<path d="M50.5633 71.5222H53.3863C56.0525 71.5222 57.8969 73.3212 57.8969 75.6624V75.687C57.8969 78.0343 56.0525 79.8518 53.3863 79.8518H50.5633V71.5222ZM51.1969 72.0952V79.285H53.3926C55.7577 79.285 57.2508 77.7016 57.2508 75.7116V75.687C57.2696 73.7155 55.6573 72.1075 53.6498 72.089C53.562 72.089 53.4804 72.089 53.3926 72.0952H51.2032H51.1969Z" fill="white"/>
<defs>
<linearGradient id="paint0_linear_876_1568" x1="-6.68223" y1="21.6403" x2="5.3193" y2="23.5124" gradientUnits="userSpaceOnUse">
<stop stop-color="#FFE89B"/>
<stop offset="0.17" stop-color="#FEE091"/>
<stop offset="0.45" stop-color="#FDCD76"/>
<stop offset="0.82" stop-color="#FBAF4C"/>
<stop offset="1" stop-color="#FB9E34"/>
</linearGradient>
<linearGradient id="paint1_linear_876_1568" x1="65.1643" y1="25.0529" x2="53.5103" y2="26.2584" gradientUnits="userSpaceOnUse">
<stop stop-color="#FFE89B"/>
<stop offset="0.17" stop-color="#FEE091"/>
<stop offset="0.45" stop-color="#FDCD76"/>
<stop offset="0.82" stop-color="#FBAF4C"/>
<stop offset="1" stop-color="#FB9E34"/>
</linearGradient>
<linearGradient id="paint2_linear_876_1568" x1="2.14554" y1="24.9692" x2="56.9176" y2="24.9692" gradientUnits="userSpaceOnUse">
<stop stop-color="#FFE89B"/>
<stop offset="0.17" stop-color="#FEE091"/>
<stop offset="0.45" stop-color="#FDCD76"/>
<stop offset="0.82" stop-color="#FBAF4C"/>
<stop offset="1" stop-color="#FB9E34"/>
</linearGradient>
<linearGradient id="paint3_linear_876_1568" x1="29.7789" y1="51.5432" x2="29.7789" y2="57.3849" gradientUnits="userSpaceOnUse">
<stop stop-color="#371378"/>
<stop offset="1" stop-color="#A65BF6"/>
</linearGradient>
<clipPath id="clip0_876_1568">
<rect width="59.3795" height="62.3485" fill="white"/>
</clipPath>
</defs>
</svg>
