<svg width="24" height="24" viewBox="0 0 24 24" fill="none" xmlns="http://www.w3.org/2000/svg">
<path fill-rule="evenodd" clip-rule="evenodd" d="M5.13817 3.30413C4.82922 1.74143 5.91866 0.273438 7.31703 0.273438C8.56093 0.273438 9.96744 1.40205 9.96744 2.78323V7.73178C10.3658 7.68443 10.6585 7.84228 10.9674 8.00802C11.2601 8.16587 11.5609 8.33161 11.9837 8.33161C12.3577 8.33161 12.6341 8.17376 12.9105 8.0238C13.2113 7.85806 13.5122 7.68443 13.9187 7.73178V2.78323C13.9187 1.39416 15.3252 0.273438 16.5691 0.273438C17.9674 0.273438 19.0569 1.74932 18.8211 3.30413L17.813 9.54704C21.0813 10.9361 23.3333 13.3591 23.3333 16.1372C23.3333 20.3833 18.2764 23.8481 12.0569 23.8481C5.83735 23.8481 0.788574 20.3833 0.788574 16.1372C0.788574 13.367 2.96744 10.9361 6.2276 9.54704L5.13817 3.30413ZM8.86987 15.5137C8.86987 16.6423 8.32516 17.5973 7.62597 17.5973C6.92679 17.5973 6.38207 16.6423 6.38207 15.5137C6.38207 14.3851 6.92679 13.4301 7.62597 13.4301C8.32516 13.4301 8.86987 14.3851 8.86987 15.5137ZM16.252 17.5973C16.9512 17.5973 17.4959 16.6423 17.4959 15.5137C17.4959 14.3851 16.9512 13.4301 16.252 13.4301C15.5528 13.4301 15.0081 14.3851 15.0081 15.5137C15.0081 16.6423 15.5528 17.5973 16.252 17.5973Z" fill="white"/>
</svg>
