<svg width="28" height="20" viewBox="0 0 28 20" fill="none" xmlns="http://www.w3.org/2000/svg">
<g clip-path="url(#clip0_866_1615)">
<mask id="mask0_866_1615" style="mask-type:luminance" maskUnits="userSpaceOnUse" x="0" y="0" width="28" height="20">
<path d="M27.5 0H0V19.9959H27.5V0Z" fill="white"/>
</mask>
<g mask="url(#mask0_866_1615)">
<path d="M27.5 16.3775C27.4241 11.5521 26.2659 6.80691 24.1123 2.50044C22.2154 0.993878 19.9031 0.120519 17.494 -0.000146667L17.1637 0.38118C19.3081 0.958148 21.3064 1.98849 23.0271 3.40426C20.8342 2.18237 18.4262 1.40625 15.9389 1.11923C14.3566 0.942918 12.7587 0.958733 11.1798 1.16668C11.0443 1.17078 10.9087 1.18659 10.776 1.21412C8.92719 1.42617 7.12356 1.93167 5.43117 2.7119C4.55977 3.12017 4.04122 3.4025 4.04122 3.4025C5.8547 1.91586 7.97062 0.85154 10.2378 0.285116L10.0072 -0.000732422C7.59865 0.119933 5.2869 0.993879 3.39057 2.49985C1.23583 6.80691 0.076479 11.5521 0 16.3775C1.64893 18.7165 4.34076 20.0731 7.18092 19.9958C7.18092 19.9958 8.05231 18.9297 8.75569 18.02C7.10154 17.5977 5.64496 16.6042 4.63799 15.2119C4.63799 15.2119 4.8738 15.3783 5.29675 15.6202C5.3234 15.6495 5.35585 15.6735 5.39119 15.691C5.4613 15.7385 5.52561 15.7619 5.60267 15.8094C6.15656 16.1186 6.73073 16.3887 7.32171 16.6183C8.44224 17.0652 9.60043 17.4085 10.7824 17.6422C12.7958 18.0329 14.8642 18.0411 16.8804 17.6656C18.0531 17.4583 19.1986 17.1144 20.2936 16.6417C21.2455 16.278 22.154 15.8064 23.0011 15.2365C21.9558 16.6599 20.446 17.6633 18.7391 18.0692C19.4448 18.9736 20.2936 19.9975 20.2936 19.9975C23.139 20.0701 25.836 18.7153 27.4977 16.3793M9.34782 14.1634C7.96656 14.0966 6.89586 12.9187 6.94626 11.5216C6.88717 10.1223 7.96077 8.93964 9.34492 8.87989C9.34608 8.87989 9.34724 8.87989 9.34782 8.87989C10.7239 8.92909 11.7998 10.0977 11.7511 11.4888C11.7511 11.5 11.7505 11.5111 11.75 11.5222C11.8091 12.9216 10.7355 14.1042 9.3513 14.164C9.35014 14.164 9.34898 14.164 9.3484 14.164M17.9424 14.164C16.5612 14.0972 15.4905 12.9193 15.5409 11.5222C15.4818 10.1229 16.5554 8.94022 17.9395 8.88048C17.9407 8.88048 17.9419 8.88048 17.9424 8.88048C19.3266 8.94022 20.4008 10.1229 20.3417 11.5216C20.4008 12.921 19.3272 14.1036 17.943 14.1634C17.9419 14.1634 17.9407 14.1634 17.9401 14.1634" fill="#8462F6"/>
</g>
</g>
<defs>
<clipPath id="clip0_866_1615">
<rect width="27.5" height="20" fill="white"/>
</clipPath>
</defs>
</svg>
