<svg width="30" height="21" viewBox="0 0 30 21" fill="none" xmlns="http://www.w3.org/2000/svg">
<path d="M16.5313 10.455C16.4997 14.9195 12.8387 18.5142 8.36765 18.4827C3.88608 18.4513 0.277666 14.8043 0.309226 10.3502C0.340787 5.90669 3.95972 2.32251 8.42026 2.32251C12.9124 2.33299 16.5523 5.98005 16.5313 10.455Z" fill="#8462F6"/>
<path d="M25.4314 10.4551C25.4314 14.689 23.6114 18.116 21.3706 18.116C19.1298 18.116 17.3098 14.689 17.3098 10.4551C17.3098 6.22117 19.1298 2.79419 21.3706 2.79419C23.6114 2.79419 25.4314 6.22117 25.4314 10.4551Z" fill="#8462F6"/>
<path d="M29.0713 10.455C29.0713 14.2488 28.4295 17.3194 27.6405 17.3194C26.8515 17.3194 26.2098 14.2383 26.2098 10.455C26.2098 6.67171 26.8515 3.59058 27.6405 3.59058C28.4295 3.59058 29.0713 6.66123 29.0713 10.455Z" fill="#8462F6"/>
</svg>
