<svg width="25" height="21" viewBox="0 0 25 21" fill="none" xmlns="http://www.w3.org/2000/svg">
<path d="M5.94108 12.0143L0.483643 10.2301C0.483643 10.2301 -0.167814 9.9647 0.0414266 9.36253C0.084524 9.23846 0.171656 9.13288 0.432426 8.95054C1.64165 8.10525 22.8165 0.469759 22.8165 0.469759C22.8165 0.469759 23.4146 0.267679 23.7678 0.402086C23.9292 0.463493 24.0323 0.532733 24.1191 0.786195C24.1507 0.878305 24.1688 1.07443 24.1666 1.26931C24.165 1.40998 24.1475 1.54031 24.135 1.74459C24.0061 3.83212 20.1473 19.412 20.1473 19.412C20.1473 19.412 19.9165 20.3237 19.0889 20.3547C18.7872 20.366 18.4212 20.3046 17.9834 19.9271C16.36 18.526 10.7486 14.7429 9.50879 13.9107C9.43915 13.8641 9.41916 13.803 9.40729 13.7434C9.38981 13.6557 9.48474 13.547 9.48474 13.547C9.48474 13.547 19.2557 4.83375 19.5155 3.91953C19.5355 3.84872 19.4599 3.81363 19.3575 3.84434C18.7085 4.0837 7.45854 11.2104 6.21715 11.9974C6.14439 12.0435 5.94108 12.0143 5.94108 12.0143Z" fill="#8462F6"/>
</svg>
