<svg width="26" height="21" viewBox="0 0 26 21" fill="none" xmlns="http://www.w3.org/2000/svg">
<path d="M25.5716 2.69627C24.6247 3.105 23.6253 3.37748 22.6049 3.49276C23.6779 2.86395 24.488 1.87883 24.8772 0.694583C23.8568 1.28147 22.7522 1.70067 21.6055 1.92075C20.6166 0.904184 19.2595 0.327781 17.8393 0.327781C15.0199 0.306821 12.7054 2.57051 12.6844 5.37917C12.6844 5.76693 12.7265 6.15469 12.8212 6.53197C8.68674 6.34333 4.82585 4.42548 2.1853 1.25003C1.72241 2.01507 1.49097 2.89539 1.49097 3.7862C1.49097 5.48397 2.35362 7.06645 3.78436 7.9887C2.96379 7.96774 2.16426 7.74766 1.44889 7.3599V7.42278C1.46993 9.84367 3.19523 11.9187 5.5833 12.3798C4.82585 12.579 4.02632 12.6104 3.24783 12.4637C3.94216 14.5387 5.87787 15.9431 8.06605 15.9745C6.22503 17.3788 3.97372 18.1439 1.65929 18.1334C1.24901 18.1334 0.838722 18.1124 0.428436 18.06C2.79547 19.5482 5.54122 20.3342 8.33958 20.3342C16.3138 20.46 22.8889 14.1195 23.0152 6.17565C23.0152 6.10229 23.0152 6.02893 23.0152 5.96605C23.0152 5.74597 23.0152 5.52589 22.9941 5.31629C24.0041 4.60364 24.8772 3.72332 25.5716 2.70675" fill="#8462F6"/>
</svg>
