<svg width="15" height="16" viewBox="0 0 15 16" fill="none" xmlns="http://www.w3.org/2000/svg">
<path d="M7.11328 15.4863C6.15097 15.4863 5.20167 15.2947 4.31739 14.8978C3.47211 14.5146 2.70487 13.9808 2.05466 13.2965C1.40445 12.6122 0.897288 11.8047 0.546175 10.9151C0.182058 9.98449 0 8.97171 0 7.95894C0 6.94617 0.182058 5.94708 0.546175 5.01642C0.897288 4.12682 1.41745 3.33303 2.05466 2.64872C2.70487 1.96442 3.47211 1.43066 4.31739 1.06113C5.21467 0.691606 6.16398 0.5 7.11328 0.5C8.07559 0.5 9.02489 0.691606 9.90918 1.07482C10.7544 1.44434 11.5217 1.9781 12.1719 2.66241C12.8221 3.34672 13.3293 4.14051 13.6804 5.03011C14.0575 5.96077 14.2396 6.95985 14.2266 7.95894C14.2266 8.97171 14.0445 9.98449 13.6804 10.9151C13.3293 11.8047 12.8091 12.6122 12.1719 13.2965C11.5217 13.9808 10.7544 14.5146 9.90918 14.8978C9.02489 15.2947 8.07559 15.5 7.11328 15.4863ZM7.11328 14.4051C7.52942 13.9535 7.88053 13.4334 8.15362 12.8586C8.46572 12.2016 8.68679 11.5036 8.84284 10.792H5.40974C5.55278 11.49 5.78686 12.1743 6.07295 12.8175C6.34604 13.406 6.69715 13.9398 7.11328 14.4051ZM5.6048 14.1861C5.3057 13.7071 5.04562 13.187 4.83755 12.6533C4.60348 12.0511 4.43442 11.4352 4.30438 10.8057H1.63853C2.01565 11.5995 2.54882 12.3111 3.19903 12.8859C3.92726 13.4608 4.73352 13.8987 5.6048 14.1861ZM8.64777 14.1724C9.48004 13.8987 10.2733 13.4608 10.9495 12.8859C11.6257 12.3111 12.1849 11.6131 12.601 10.8057H9.94819C9.80515 11.4352 9.62309 12.0374 9.40202 12.6396C9.19395 13.1734 8.94687 13.6934 8.64777 14.1724ZM1.28741 9.66971H4.12232C4.08331 9.32755 4.07031 9.02646 4.0573 8.76642C4.0443 8.50639 4.0573 8.23266 4.0573 7.97263C4.0573 7.65785 4.0573 7.38412 4.07031 7.13777C4.07031 6.89142 4.10932 6.6177 4.14833 6.31661H1.28741C1.20939 6.57664 1.15737 6.85037 1.11836 7.12409C1.09235 7.39781 1.06634 7.68522 1.07935 7.97263C1.07935 8.26004 1.07935 8.54745 1.11836 8.84854C1.15737 9.13595 1.20939 9.40967 1.28741 9.68339M5.21467 9.68339H9.0379C9.07691 9.30018 9.11592 8.9854 9.12893 8.73905C9.14193 8.4927 9.15494 8.24635 9.14193 7.98631C9.14193 7.73996 9.14193 7.49361 9.12893 7.26095C9.12893 7.02828 9.08992 6.72719 9.0379 6.33029H5.21467C5.16266 6.7135 5.13665 7.02828 5.12364 7.26095C5.12364 7.49361 5.11064 7.72628 5.11064 7.98631C5.11064 8.24635 5.11064 8.50639 5.12364 8.73905C5.12364 8.9854 5.16266 9.30018 5.21467 9.68339ZM10.1042 9.68339H12.9522C13.0302 9.40967 13.0822 9.13595 13.1212 8.84854C13.1472 8.56113 13.1732 8.27372 13.1602 7.97263C13.1602 7.68522 13.1602 7.4115 13.1212 7.12409C13.0822 6.85037 13.0302 6.57664 12.9522 6.31661H10.1302C10.1693 6.75456 10.1953 7.08303 10.1953 7.31569C10.1953 7.54836 10.2083 7.76734 10.2083 7.95894C10.2083 8.23266 10.2083 8.4927 10.1823 8.73905C10.1693 8.9854 10.1433 9.2865 10.1042 9.66971M9.92218 5.19434H12.588C12.2109 4.35949 11.6647 3.62044 10.9755 3.04562C10.2863 2.4708 9.48004 2.04653 8.62177 1.82755C8.92086 2.29288 9.18095 2.79927 9.37601 3.31934C9.61008 3.92153 9.79214 4.5511 9.92218 5.19434ZM5.40974 5.19434H8.85584C8.7258 4.52372 8.50473 3.88047 8.19263 3.27828C7.90654 2.68978 7.54242 2.12865 7.11328 1.63595C6.71015 2.00547 6.38505 2.45712 6.15097 2.9635C5.83887 3.67518 5.57879 4.42792 5.39673 5.19434M1.62552 5.19434H4.31739C4.43442 4.57847 4.60348 3.97628 4.81154 3.38777C5.01961 2.85401 5.27969 2.33394 5.57879 1.84124C4.72051 2.06022 3.92726 2.4708 3.23804 3.04562C2.56182 3.63412 2.00264 4.35949 1.62552 5.19434Z" fill="#8462F6"/>
</svg>
